<mxfile host="Electron" modified="2024-06-22T08:49:18.398Z" agent="Mozilla/5.0 (Windows NT 10.0; Win64; x64) AppleWebKit/537.36 (KHTML, like Gecko) draw.io/24.5.3 Chrome/124.0.6367.207 Electron/30.0.6 Safari/537.36" etag="kowTFuNJlbT9wYE5UWLb" version="24.5.3" type="device">
  <diagram name="Page-1" id="G5CJM3jJu2w8uUg-CyaN">
    <mxGraphModel dx="2072" dy="1212" grid="1" gridSize="10" guides="1" tooltips="1" connect="1" arrows="1" fold="1" page="1" pageScale="1" pageWidth="1169" pageHeight="1654" math="0" shadow="0">
      <root>
        <mxCell id="0" />
        <mxCell id="1" parent="0" />
        <mxCell id="7cdKQdBNSUZ9-6M4vlJJ-9" value="" style="rounded=0;whiteSpace=wrap;html=1;fillColor=#dae8fc;strokeColor=#6c8ebf;" parent="1" vertex="1">
          <mxGeometry x="250" y="97" width="680" height="540" as="geometry" />
        </mxCell>
        <mxCell id="97Gmf2GGLothnnZPq68M-1" value="&lt;font style=&quot;font-size: 15px;&quot;&gt;Application&lt;/font&gt;" style="text;html=1;align=center;verticalAlign=middle;resizable=0;points=[];autosize=1;strokeColor=none;fillColor=none;" parent="1" vertex="1">
          <mxGeometry x="820" y="97" width="100" height="30" as="geometry" />
        </mxCell>
        <mxCell id="97Gmf2GGLothnnZPq68M-2" value="User" style="shape=umlActor;verticalLabelPosition=bottom;verticalAlign=top;html=1;outlineConnect=0;fillColor=#FFFFCC;" parent="1" vertex="1">
          <mxGeometry x="130" y="387" width="30" height="60" as="geometry" />
        </mxCell>
        <mxCell id="97Gmf2GGLothnnZPq68M-5" value="UC1. Naviguer sur l&#39;interface" style="ellipse;whiteSpace=wrap;html=1;fillColor=#fff2cc;strokeColor=#d6b656;" parent="1" vertex="1">
          <mxGeometry x="280" y="127" width="120" height="80" as="geometry" />
        </mxCell>
        <mxCell id="97Gmf2GGLothnnZPq68M-6" value="UC2. Visualiser les médias" style="ellipse;whiteSpace=wrap;html=1;fillColor=#fff2cc;strokeColor=#d6b656;" parent="1" vertex="1">
          <mxGeometry x="560" y="107" width="120" height="80" as="geometry" />
        </mxCell>
        <mxCell id="7cdKQdBNSUZ9-6M4vlJJ-1" value="UC3. Création de compt&lt;span style=&quot;color: rgba(0, 0, 0, 0); font-family: monospace; font-size: 0px; text-align: start; text-wrap: nowrap;&quot;&gt;%3CmxGraphModel%3E%3Croot%3E%3CmxCell%20id%3D%220%22%2F%3E%3CmxCell%20id%3D%221%22%20parent%3D%220%22%2F%3E%3CmxCell%20id%3D%222%22%20value%3D%22UC1.%20Naviguer%20sur%20l&#39;interface%22%20style%3D%22ellipse%3BwhiteSpace%3Dwrap%3Bhtml%3D1%3B%22%20vertex%3D%221%22%20parent%3D%221%22%3E%3CmxGeometry%20x%3D%22280%22%20y%3D%22290%22%20width%3D%22120%22%20height%3D%2280%22%20as%3D%22geometry%22%2F%3E%3C%2FmxCell%3E%3C%2Froot%3E%3C%2FmxGraphModel%3E&lt;/span&gt;e" style="ellipse;whiteSpace=wrap;html=1;fillColor=#fff2cc;strokeColor=#d6b656;" parent="1" vertex="1">
          <mxGeometry x="280" y="327" width="120" height="80" as="geometry" />
        </mxCell>
        <mxCell id="7cdKQdBNSUZ9-6M4vlJJ-2" value="UC4. Connexion" style="ellipse;whiteSpace=wrap;html=1;fillColor=#fff2cc;strokeColor=#d6b656;" parent="1" vertex="1">
          <mxGeometry x="500" y="247" width="120" height="80" as="geometry" />
        </mxCell>
        <mxCell id="7cdKQdBNSUZ9-6M4vlJJ-3" value="UC5. Modification mot de passe" style="ellipse;whiteSpace=wrap;html=1;fillColor=#fff2cc;strokeColor=#d6b656;" parent="1" vertex="1">
          <mxGeometry x="730" y="317" width="120" height="80" as="geometry" />
        </mxCell>
        <mxCell id="7cdKQdBNSUZ9-6M4vlJJ-4" value="UC6. Création d&#39;un média" style="ellipse;whiteSpace=wrap;html=1;fillColor=#fff2cc;strokeColor=#d6b656;" parent="1" vertex="1">
          <mxGeometry x="290" y="517" width="120" height="80" as="geometry" />
        </mxCell>
        <mxCell id="7cdKQdBNSUZ9-6M4vlJJ-5" value="UC7. Modification d&#39;un média" style="ellipse;whiteSpace=wrap;html=1;fillColor=#fff2cc;strokeColor=#d6b656;" parent="1" vertex="1">
          <mxGeometry x="540" y="457" width="120" height="80" as="geometry" />
        </mxCell>
        <mxCell id="7cdKQdBNSUZ9-6M4vlJJ-6" value="UC8. Suppression d&#39;un média" style="ellipse;whiteSpace=wrap;html=1;fillColor=#fff2cc;strokeColor=#d6b656;" parent="1" vertex="1">
          <mxGeometry x="740" y="447" width="120" height="80" as="geometry" />
        </mxCell>
        <mxCell id="7cdKQdBNSUZ9-6M4vlJJ-7" value="UC9. Effectuer&amp;nbsp;&lt;span style=&quot;background-color: initial;&quot;&gt;une recherche&lt;/span&gt;" style="ellipse;whiteSpace=wrap;html=1;fillColor=#fff2cc;strokeColor=#d6b656;" parent="1" vertex="1">
          <mxGeometry x="760" y="167" width="120" height="80" as="geometry" />
        </mxCell>
        <mxCell id="7cdKQdBNSUZ9-6M4vlJJ-19" value="" style="endArrow=none;html=1;rounded=0;entryX=0;entryY=1;entryDx=0;entryDy=0;" parent="1" target="97Gmf2GGLothnnZPq68M-5" edge="1">
          <mxGeometry width="50" height="50" relative="1" as="geometry">
            <mxPoint x="170" y="397" as="sourcePoint" />
            <mxPoint x="400" y="447" as="targetPoint" />
          </mxGeometry>
        </mxCell>
        <mxCell id="7cdKQdBNSUZ9-6M4vlJJ-20" value="" style="endArrow=none;html=1;rounded=0;entryX=0;entryY=1;entryDx=0;entryDy=0;" parent="1" target="7cdKQdBNSUZ9-6M4vlJJ-1" edge="1">
          <mxGeometry width="50" height="50" relative="1" as="geometry">
            <mxPoint x="180" y="407" as="sourcePoint" />
            <mxPoint x="308" y="205" as="targetPoint" />
          </mxGeometry>
        </mxCell>
        <mxCell id="cTrBi11Q7NMkKMouG5E1-150" value="&lt;font style=&quot;font-size: 20px;&quot;&gt;Diagrammes de cas d&#39;utilisation&lt;/font&gt;" style="text;html=1;align=center;verticalAlign=middle;resizable=0;points=[];autosize=1;strokeColor=none;fillColor=none;" parent="1" vertex="1">
          <mxGeometry x="386" y="27" width="310" height="40" as="geometry" />
        </mxCell>
        <mxCell id="rKxixT1wgWcmoziK7b6e-2" value="extends" style="endArrow=open;endSize=12;dashed=1;html=1;rounded=0;exitX=0;exitY=0.5;exitDx=0;exitDy=0;entryX=0.97;entryY=0.373;entryDx=0;entryDy=0;entryPerimeter=0;" parent="1" source="97Gmf2GGLothnnZPq68M-6" target="97Gmf2GGLothnnZPq68M-5" edge="1">
          <mxGeometry width="160" relative="1" as="geometry">
            <mxPoint x="460" y="320" as="sourcePoint" />
            <mxPoint x="620" y="320" as="targetPoint" />
          </mxGeometry>
        </mxCell>
        <mxCell id="rKxixT1wgWcmoziK7b6e-3" value="extends" style="endArrow=open;endSize=12;dashed=1;html=1;rounded=0;exitX=0;exitY=0.5;exitDx=0;exitDy=0;entryX=1;entryY=1;entryDx=0;entryDy=0;" parent="1" target="97Gmf2GGLothnnZPq68M-5" edge="1">
          <mxGeometry width="160" relative="1" as="geometry">
            <mxPoint x="759.25" y="207" as="sourcePoint" />
            <mxPoint x="595.25" y="217" as="targetPoint" />
          </mxGeometry>
        </mxCell>
        <mxCell id="rKxixT1wgWcmoziK7b6e-4" value="extends" style="endArrow=open;endSize=12;dashed=1;html=1;rounded=0;exitX=0;exitY=0.5;exitDx=0;exitDy=0;entryX=0.5;entryY=0;entryDx=0;entryDy=0;" parent="1" source="7cdKQdBNSUZ9-6M4vlJJ-2" target="7cdKQdBNSUZ9-6M4vlJJ-1" edge="1">
          <mxGeometry width="160" relative="1" as="geometry">
            <mxPoint x="483" y="282" as="sourcePoint" />
            <mxPoint x="319" y="292" as="targetPoint" />
          </mxGeometry>
        </mxCell>
        <mxCell id="rKxixT1wgWcmoziK7b6e-6" value="extends" style="endArrow=open;endSize=12;dashed=1;html=1;rounded=0;exitX=0;exitY=0.5;exitDx=0;exitDy=0;entryX=0.977;entryY=0.283;entryDx=0;entryDy=0;entryPerimeter=0;" parent="1" source="7cdKQdBNSUZ9-6M4vlJJ-3" target="7cdKQdBNSUZ9-6M4vlJJ-1" edge="1">
          <mxGeometry width="160" relative="1" as="geometry">
            <mxPoint x="510" y="297" as="sourcePoint" />
            <mxPoint x="350" y="337" as="targetPoint" />
          </mxGeometry>
        </mxCell>
        <mxCell id="rKxixT1wgWcmoziK7b6e-7" value="extends" style="endArrow=open;endSize=12;dashed=1;html=1;rounded=0;exitX=0;exitY=0;exitDx=0;exitDy=0;entryX=1;entryY=0.5;entryDx=0;entryDy=0;" parent="1" source="7cdKQdBNSUZ9-6M4vlJJ-6" target="7cdKQdBNSUZ9-6M4vlJJ-1" edge="1">
          <mxGeometry width="160" relative="1" as="geometry">
            <mxPoint x="740" y="367" as="sourcePoint" />
            <mxPoint x="407" y="360" as="targetPoint" />
          </mxGeometry>
        </mxCell>
        <mxCell id="rKxixT1wgWcmoziK7b6e-8" value="extends" style="endArrow=open;endSize=12;dashed=1;html=1;rounded=0;exitX=0.11;exitY=0.238;exitDx=0;exitDy=0;entryX=0.917;entryY=0.833;entryDx=0;entryDy=0;exitPerimeter=0;entryPerimeter=0;" parent="1" source="7cdKQdBNSUZ9-6M4vlJJ-5" target="7cdKQdBNSUZ9-6M4vlJJ-1" edge="1">
          <mxGeometry width="160" relative="1" as="geometry">
            <mxPoint x="768" y="469" as="sourcePoint" />
            <mxPoint x="410" y="377" as="targetPoint" />
          </mxGeometry>
        </mxCell>
        <mxCell id="rKxixT1wgWcmoziK7b6e-9" value="extends" style="endArrow=open;endSize=12;dashed=1;html=1;rounded=0;exitX=0.66;exitY=0.038;exitDx=0;exitDy=0;entryX=0.5;entryY=1;entryDx=0;entryDy=0;exitPerimeter=0;" parent="1" source="7cdKQdBNSUZ9-6M4vlJJ-4" target="7cdKQdBNSUZ9-6M4vlJJ-1" edge="1">
          <mxGeometry width="160" relative="1" as="geometry">
            <mxPoint x="563" y="486" as="sourcePoint" />
            <mxPoint x="400" y="404" as="targetPoint" />
          </mxGeometry>
        </mxCell>
      </root>
    </mxGraphModel>
  </diagram>
</mxfile>
